<?xml version="1.0" encoding="UTF-8"?>
<svg id="Layer_1" data-name="Layer 1" xmlns="http://www.w3.org/2000/svg" viewBox="0 0 1393.52 294.85">
  <path d="M.2,0v42.8h25.41L42.59,0H.2Z"/>
  <polygon points="571.8 252.05 554.83 294.85 529.42 294.85 483.43 294.84 500.4 252.05 571.8 252.05"/>
  <path d="M538.13,214.07c-42.93,0-75.96-31.75-75.96-74.94s33.79-74.94,75.96-74.94,75.95,31.75,75.95,74.43-33.53,75.45-75.95,75.45ZM571.91,139.14c0-18.8-14.23-35.56-34.04-35.56-18.54,0-33.53,16.26-33.53,35.56s14.73,35.56,33.79,35.56,33.79-16.77,33.79-35.56Z"/>
  <rect x="0" y="68.26" width="42.59" height="140.99"/>
  <path d="M237.56,209.25v-75.95c0-22.1-7.18-30.23-21.81-30.23-16.16,0-23.6,9.65-23.6,28.2v77.99h-42.59v-77.73c0-18.29-6.67-28.45-21.29-28.45-16.68,0-24.12,10.67-24.12,30.23v75.95h-42.59V68.26h39.76v14.99h.51c7.44-13.21,21.04-19.81,39.25-19.81s32.07,9.14,41.05,25.15c10.26-16,25.65-25.15,45.15-25.15,31.81,0,52.85,19.31,52.85,58.68v87.13h-42.59Z"/>
  <path d="M405.33,209.25v-15.24h-.51c-6.16,12.45-23.09,20.07-41.82,20.07-42.07,0-71.32-32.77-71.32-75.45s30.53-75.19,71.32-75.19c17.45,0,33.61,6.86,41.82,19.81h.51v-14.99h42.59v140.99h-42.59ZM405.33,138.63c0-19.81-16.16-35.82-36.17-35.82s-34.89,16-34.89,36.33,15.65,35.56,35.4,35.56,35.66-15.75,35.66-36.07Z"/>
  <path d="M876.34,209.25v-78.24c0-19.05-6.67-27.94-22.32-27.94-17.19,0-24.37,9.4-24.37,28.45v77.73h-42.59V68.26h39.76v14.99h.51c8.98-14.48,21.55-19.81,38.74-19.81,25.65,0,52.85,14.23,52.85,55.89v89.93h-42.59Z"/>
  <path d="M1026.67,209.25v-78.24c0-19.05-6.67-27.94-22.32-27.94-17.19,0-24.37,9.4-24.37,28.45v77.73h-42.59V68.26h39.76v14.99h.51c8.98-14.48,21.55-19.81,38.74-19.81,25.65,0,52.85,14.23,52.85,55.89v89.93h-42.59Z"/>
  <path d="M737.03,151.96c-6.09,13.85-20.03,23.29-35.64,23.29s-29.54-9.44-35.64-23.29h71.28l24.1-60.82c-13.67-18.05-35.34-29.71-59.74-29.71-36.01,0-66.09,25.42-73.27,59.29-1.08,5.04-1.64,10.26-1.64,15.62s.56,10.58,1.64,15.62c7.18,33.87,37.26,59.29,73.27,59.29s66.09-25.42,73.27-59.29h-37.63ZM701.39,97.43c15.61,0,29.55,9.43,35.64,23.29h-71.28c6.1-13.86,20.04-23.29,35.64-23.29Z"/>
  <path d="M571.81,48.82v42.8h25.41l16.97-42.8h-42.38Z"/>
  <path d="M571.81,209.25v42.8h25.41l16.97-42.8h-42.38Z"/>
  <path d="M1371.54,202.87c0-5.86,5.03-10.86,10.83-10.86,6.41,0,11.15,5.06,11.15,11.03,0,6.38-5.2,11.03-10.98,11.03-6.29,0-11-5.06-11-11.21ZM1391.13,203.18c0-5.11-3.85-8.96-8.5-8.96s-8.71,3.74-8.71,8.82,3.94,8.82,8.62,8.82,8.59-3.99,8.59-8.68ZM1384.67,209.05c-.09-.2-.2-.66-.26-1.26l-.12-1.49c-.12-1.32-.75-1.95-2.13-1.95h-1.29v4.71h-3.05v-12.24h5.23c2.61,0,4.42,1.24,4.42,3.45,0,1.41-.72,2.38-1.98,2.96,1.15.46,1.72,1.32,1.81,3.51.03,1.09.12,1.87.32,2.33h-2.96ZM1382.45,202.35c1.24,0,1.98-.52,1.98-1.87,0-1.06-.66-1.58-1.81-1.58h-1.75v3.45h1.58Z"/>
  <g>
    <path d="M1087.73,209.25v-43.19h43.95v43.19h-43.95Z"/>
    <path d="M1258.94,209.25v-15.24h-.51c-6.1,12.45-22.86,20.07-41.41,20.07-41.66,0-70.62-32.77-70.62-75.45s30.23-75.19,70.62-75.19c17.27,0,33.28,6.86,41.41,19.81h.51v-14.99h42.17v140.99h-42.17ZM1258.94,138.63c0-19.81-16-35.82-35.82-35.82s-34.55,16-34.55,36.33,15.5,35.56,35.06,35.56,35.31-15.75,35.31-36.07Z"/>
    <path d="M1320.16,53.27V21.27h42.17v32.01h-42.17ZM1320.16,209.25V68.26h42.17v140.99h-42.17Z"/>
  </g>
</svg>